<svg width="33" height="33" viewBox="0 0 33 33" fill="none" xmlns="http://www.w3.org/2000/svg">
<path id="Vector" d="M31.9289 29.1711L24.5781 21.8203C26.3479 19.4643 27.3032 16.5966 27.3 13.65C27.3 6.12344 21.1766 0 13.65 0C6.12344 0 0 6.12344 0 13.65C0 21.1766 6.12344 27.3 13.65 27.3C16.5966 27.3032 19.4643 26.3479 21.8203 24.5781L29.1711 31.9289C29.5432 32.2615 30.0285 32.4391 30.5274 32.4251C31.0263 32.4112 31.5009 32.2067 31.8538 31.8538C32.2067 31.5009 32.4112 31.0263 32.4251 30.5274C32.4391 30.0285 32.2615 29.5432 31.9289 29.1711ZM3.9 13.65C3.9 11.7216 4.47183 9.83657 5.54317 8.23319C6.61451 6.62981 8.13726 5.38013 9.91884 4.64217C11.7004 3.90422 13.6608 3.71114 15.5521 4.08734C17.4434 4.46355 19.1807 5.39215 20.5443 6.75571C21.9079 8.11927 22.8365 9.85655 23.2127 11.7479C23.5889 13.6392 23.3958 15.5996 22.6578 17.3812C21.9199 19.1627 20.6702 20.6855 19.0668 21.7568C17.4634 22.8282 15.5784 23.4 13.65 23.4C11.0651 23.3969 8.58694 22.3687 6.75913 20.5409C4.93133 18.7131 3.9031 16.2349 3.9 13.65Z" fill="#736C63" fill-opacity="0.59"/>
</svg>
